<svg xmlns="http://www.w3.org/2000/svg" viewBox="0 0 55 70" height="70" width="55">
<path d="M52.5 14.31H41.77c-1.2-7.94-7.13-14-14.27-14s-13.07 6.06-14.27 14H2.5c-.55 0-1 .45-1 1v54c0 .55.45 1 1 1h50c.55 0 1-.45 1-1v-54c0-.56-.45-1-1-1zm-25-12c6.05 0 11.11 5.17 12.25 12h-24.5c1.14-6.84 6.2-12 12.25-12zm-24 66v-42h48v42h-48z"/>
<path d="M9.83 60.29c.01 0 .02.01.02.02v.87c0 .01-.01.02-.02.02l-3.05-.01c-.01 0-.02-.01-.02-.02l.01-4.2c0-.01.01-.02.02-.02h.96c.01 0 .02.01.02.02l-.01 3.31 2.07.01zM11.36 59.39v-2.42c0-.01.01-.02.02-.02h.94c.01 0 .02.01.02.02v2.54c0 .57.36.88.77.88.47 0 .79-.33.79-.8v-2.63c0-.01.01-.02.02-.02h.94c.01 0 .02.01.02.02v2.49c0 .92-.54 1.81-1.73 1.81-.98.02-1.79-.62-1.79-1.87zM16.87 61.18l.01-4.2c0-.01.01-.02.02-.02h.98c.01 0 .02.01.02.01l1.86 2.68v-2.67c0-.01.01-.02.02-.02h.86c.01 0 .02.01.02.02l-.01 4.2c0 .01-.01.02-.02.02h-.92l-.01-.01-1.93-2.73v2.72c0 .01-.01.02-.02.02h-.86c-.01 0-.02 0-.02-.02zM22.37 59.08c0-1.06.75-2.2 2.2-2.2.91 0 1.4.42 1.58.66.01.01.01.02 0 .02l-.61.66c-.01.01-.02.01-.02 0-.16-.21-.48-.45-.92-.45-.69 0-1.16.46-1.17 1.31 0 .86.54 1.34 1.22 1.34.54 0 .84-.29.96-.44.01-.01.02-.01.02 0l.56.68c.01.01.01.02 0 .02-.31.34-.82.62-1.61.62-1.15 0-2.21-.75-2.21-2.22zM28.85 61.2c0 .01-.01.02-.02.02h-.96c-.01 0-.02-.01-.02-.02l.01-4.2c0-.01.01-.02.02-.02h.96c.01 0 .02.01.02.02v1.69h1.81V57c0-.01.01-.02.02-.02h.96c.01 0 .02.01.02.02l-.01 4.2c0 .01-.01.02-.02.02h-.96c-.01 0-.02-.01-.02-.02v-1.6h-1.81v1.6zM36.78 60.34c.01 0 .02.01.02.02v.86c0 .01-.01.02-.02.02h-3.04c-.01 0-.02-.01-.02-.02l.01-4.2c0-.01.01-.02.02-.02h2.9c.01 0 .02.01.02.02v.85c0 .01-.01.02-.02.02l-1.94.01v.82l1.33.02c.01 0 .02.01.02.02v.8c0 .01-.01.02-.02.02l-1.33.01v.76l2.07-.01zM38.17 59.13c0-1.35 1.1-2.22 2.28-2.22 1.21 0 2.28.89 2.27 2.23 0 1.15-.98 2.19-2.28 2.19-1.34-.01-2.27-1.08-2.27-2.2zm1.06.01c0 .69.47 1.32 1.22 1.32.76 0 1.22-.62 1.22-1.32 0-.76-.46-1.34-1.21-1.34-.78 0-1.23.57-1.23 1.34zM44.44 61.23l.01-4.2c0-.01.01-.02.02-.02h.98c.01 0 .02.01.02.01l1.86 2.68v-2.67c0-.01.01-.02.02-.02h.86c.01 0 .02.01.02.02l-.01 4.2c0 .01-.01.02-.02.02h-.92l-.01-.01-1.93-2.73v2.72c0 .01-.01.02-.02.02h-.86c-.01 0-.02-.01-.02-.02z"/>
</svg>
