<svg xmlns="http://www.w3.org/2000/svg" viewBox="0 0 55 70" height="70" width="55"><style>.st2{fill:#F4F4F4}</style>
<path d="M21.55 46.19v-.03a.99.99 0 00-.09-.42c-.97-4.54-3-8.31-3.17-8.63-.18-.32-.51-.52-.88-.52H4.56c-.37 0-.7.2-.88.52-.17.31-2.21 4.09-3.17 8.63-.06.13-.09.27-.09.41v.02c-.9 4.63-.63 9.95 3.83 13.2 1.56 1.17 3.53 1.86 5.74 2.02V68H6.7c-.55 0-1 .45-1 1s.45 1 1 1h8.56c.55 0 1-.45 1-1s-.45-1-1-1h-3.28v-6.6c2.21-.16 4.18-.85 5.73-2.01 4.46-3.25 4.74-8.57 3.84-13.2zm-16.38-7.6H16.8c.52 1.05 1.69 3.59 2.44 6.57H2.73c.75-2.97 1.92-5.51 2.44-6.57zM44.17 68.9c-.21 0-.42 0-.63-.01-.29.01-.5.01-.7.01-3.92 0-7.51-1.2-9.3-1.91-.32-.13-.43-.3-.43-.35V25.27c0-.64.38-2.99 5.29-6.49 1.37-.98 1.61-1.72 1.61-5V1.82c0-.12.39-.47 1.1-.47h4.79c.71 0 1.1.35 1.1.47v11.97c0 3.27.24 4.02 1.61 5 4.91 3.5 5.29 5.85 5.29 6.49v41.37c0 .05-.11.22-.43.35-1.79.7-5.38 1.9-9.3 1.9z"/><path d="M45.9 2.45v11.34c0 3.42.27 4.61 2.07 5.89 4.69 3.35 4.83 5.37 4.83 5.59v40.79c-1.79.69-5.08 1.73-8.63 1.73-.2 0-.4 0-.59-.01h-.14c-.2.01-.4.01-.59.01-3.54 0-6.82-1.03-8.63-1.73V25.28c0-.22.14-2.25 4.83-5.59 1.8-1.28 2.07-2.47 2.07-5.89V2.45H45.9m0-2.2h-4.8c-1.22 0-2.2.7-2.2 1.57V13.79c0 3.28-.29 3.49-1.15 4.1-4.12 2.94-5.75 5.54-5.75 7.38v41.36c0 .57.43 1.09 1.12 1.37 1.81.73 5.58 2 9.71 2 .22 0 .44 0 .67-.01.22.01.45.01.67.01 4.13 0 7.9-1.27 9.71-1.99.7-.28 1.12-.8 1.12-1.37V28.56v-3.28c0-1.85-1.63-4.45-5.75-7.38-.86-.62-1.15-.82-1.15-4.1V1.82c0-.87-.99-1.57-2.2-1.57z"/><path class="st2" d="M34.46 34.25h18.08v14.43H34.46z"/><path d="M41 10.72h5"/>
<path class="st2" d="M46 11.72h-5c-.55 0-1-.45-1-1s.45-1 1-1h5c.55 0 1 .45 1 1s-.45 1-1 1z"/><path class="st2" d="M38 41.47h11"/><path d="M49 42.95H38c-.82 0-1.48-.66-1.48-1.48s.66-1.48 1.48-1.48h11c.82 0 1.48.66 1.48 1.48s-.66 1.48-1.48 1.48z"/>
</svg>
