<svg xmlns="http://www.w3.org/2000/svg" viewBox="0 0 55 70" height="70" width="55"><path d="M7.86 56.59c.01 0 .02.01.02.02v.98c0 .01-.01.02-.02.02l-3.43-.01c-.01 0-.02-.01-.02-.02l.01-4.74c0-.01.01-.02.02-.02h1.08c.01 0 .02.01.02.02l-.01 3.73 2.33.02zm1.73-1.01v-2.73c0-.01.01-.02.02-.02h1.05c.01 0 .02.01.02.02v2.87c0 .65.41.99.86.99.53 0 .89-.38.89-.9l.01-2.96c0-.01.01-.02.02-.02h1.05c.01 0 .02.01.02.02v2.81c0 1.04-.61 2.04-1.95 2.04-1.08.01-1.99-.71-1.99-2.12zm6.21 2.02l.01-4.74c0-.01.01-.02.02-.02h1.11c.01 0 .02.01.02.01l2.09 3.02.01-3.01c0-.01.01-.02.02-.02h.97c.01 0 .02.01.02.02l-.01 4.74c0 .01-.01.02-.02.02H19l-.01-.01-2.18-3.08-.01 3.07c0 .01-.01.02-.02.02h-.96c-.01 0-.02 0-.02-.02zm6.18-2.36c0-1.2.85-2.48 2.48-2.48 1.02 0 1.58.47 1.79.74.01.01.01.02 0 .03l-.69.75c-.01.01-.02.01-.03 0-.18-.24-.55-.51-1.04-.51-.78 0-1.31.52-1.31 1.47 0 .97.61 1.51 1.37 1.51.61 0 .95-.33 1.08-.5.01-.01.02-.01.03 0l.61.75c.01.01.01.02 0 .03-.35.38-.92.69-1.81.69-1.28.01-2.49-.83-2.48-2.48zm7.3 2.38c0 .01-.01.02-.02.02h-1.08c-.01 0-.02-.01-.02-.02l.01-4.74c0-.01.01-.02.02-.02h1.08c.01 0 .02.01.02.02v1.91h2.05v-1.91c0-.01.01-.02.02-.02h1.08c.01 0 .02.01.02.02l-.01 4.74c0 .01-.01.02-.02.02h-1.08c-.01 0-.02-.01-.02-.02v-1.79h-2.05v1.79zm8.93-.96c.01 0 .02.01.02.02v.96c0 .01-.01.02-.02.02l-3.43-.01c-.01 0-.02-.01-.02-.02l.01-4.74c0-.01.01-.02.02-.02l3.27.01c.01 0 .02.01.02.02v.96c0 .01-.01.02-.02.02l-2.18.02v.93l1.5.02c.01 0 .02.01.02.02v.91c0 .01-.01.02-.02.02l-1.5.01v.85h2.33zm1.55-1.37c0-1.52 1.24-2.51 2.58-2.5 1.36 0 2.57 1 2.57 2.51 0 1.29-1.1 2.46-2.58 2.46-1.51 0-2.57-1.2-2.57-2.47zm1.2 0c0 .78.52 1.49 1.38 1.49s1.37-.69 1.37-1.49c0-.86-.52-1.51-1.37-1.51-.87.01-1.38.65-1.38 1.51zm5.87 2.37l.01-4.74c0-.01.01-.02.02-.02h1.11c.01 0 .02.01.02.01l2.09 3.02.01-3.01c0-.01.01-.02.02-.02h.97c.01 0 .02.01.02.02l-.01 4.74c0 .01-.01.02-.02.02h-1.04l-.01-.01-2.18-3.08-.01 3.07c0 .01-.01.02-.02.02h-.96c-.01 0-.02-.01-.02-.02zM33.77 64.69H21.23a.96.96 0 010-1.92h12.54a.96.96 0 010 1.92z"/><path d="M54.04.53H.96a.96.96 0 00-.96.96v67.54c0 .54.43.97.96.97h53.07c.53 0 .96-.43.96-.96V1.49a.945.945 0 00-.95-.96zM1.93 68.07V49.74h51.14v18.33H1.93z"/></svg>
