<svg xmlns="http://www.w3.org/2000/svg" viewBox="0 0 300 34"><path d="M23.3 27.5h-17V.7H0v32.6h23.3v-5.8zm17.5-8V.7h-6.2v20.1c0 8.8 5.2 13.2 12.9 13.2s12.9-4.4 12.9-13.2V.7h-6.2v18.8c0 6.6-2.6 8.7-6.7 8.7s-6.7-2.1-6.7-8.7zM102.2.7h-6v22.6L82.2.7h-8.3v32.6h6V8.6l15.3 24.7h7V.7zM114.1 17c0 10 7 17 16.5 17 4.4 0 8.5-1.3 11.7-5.2l-4.1-3.8c-2.3 2.5-5 3.2-7.6 3.2-5.7 0-9.9-4.6-9.9-11.2 0-7 4.5-11.2 9.9-11.2 3.8 0 6 1.5 7.6 3.2l4.1-3.8C139.8 2 135.8 0 130.6 0c-9.8 0-16.5 7.4-16.5 17zm59.6 16.3h6.2V.7h-6.2v12.9h-14V.7h-6.2v32.6h6.2V19.6h14v13.7zm19.8 0h22.8v-5.8h-16.6v-7.7h11.2V14h-11.2V6.5h15.4V.7h-21.7v32.6h.1zM226 17c0 10.1 7.6 17 16.9 17 9.3 0 16.9-6.9 16.9-17s-7.6-17-16.9-17C233.6 0 226 6.9 226 17zm27.2 0c0 6.3-4.6 11.2-10.3 11.2-5.8 0-10.3-4.9-10.3-11.2 0-6.3 4.6-11.2 10.3-11.2 5.8 0 10.3 4.9 10.3 11.2zM300 .7h-6v22.6L280 .7h-8.3v32.6h6V8.6L293 33.3h7V.7z" fill="#1d1d1b"/></svg>